<svg xmlns="http://www.w3.org/2000/svg" width="221" height="351" fill="none"><path d="M164.78 112.72v-.13m0 0 27.56-15.81.16.09m-54.73-.04-.16.09-27.14 15.78-.17.09m0 0L82.84 96.83l-.09-31.78m0 0 .09-.06m81.36 47.14-27.18-15.79-10.53-6.12m65.85 260.66.16-.09 27.3-15.88m-55.02-31.77v.15l.09 31.62 27.47 15.97m27.55-47.74-27.39 15.81-.16.09-27.56-15.9 27.56-15.81.16.09 27.39 15.72Zm-109.59.22.17-.09 27.12-15.78.18-.11m-27.47 15.98-27.46-15.98-.09-31.76m0 0 .09-.06m81.62 47.3-15.79-9.17-15.58-9.04-6.02-3.51M192.5 96.87V32.09m0 31.75-.16.09m27.55-47.74L192.5 32l-.16.09-27.56-15.9L192.34.38l.16.09 27.39 15.72ZM27.98 64.85l.16-.09 27.14-15.78.17-.09m82.41 16.16-27.39 15.83-.17.09-1.32-.77-26.14-15.21 27.46-15.74.17.09 27.39 15.71Zm-55.02-.06L55.28 48.98m.17 95.37-.16.09-.09.06-27.05 15.74-.17.09M.42 112.59l.09 31.77 27.47 15.97m27.57-47.74-27.41 15.83-.16.09L.42 112.59l27.56-15.81.16.09 27.41 15.72Zm82.31 143.02-27.39 15.81-.16.1-1.24-.71-26.23-15.25 27.47-15.76.16.09 27.39 15.72ZM28.15 223.8l27.14 15.73 27.55 16.03m54.93-63.16-.18.11-27.12 15.78-.16.09m-27.56-47.74.09 31.76 27.47 15.98" stroke="#fbefd8" stroke-width=".75" stroke-linecap="round" stroke-linejoin="round"/><path d="m82.84 160.58-.07.04-.02.02m55.11 0-27.39 15.81-.17.09-1.23-.71-26.23-15.24 27.46-15.76.17.09 27.39 15.72Zm-55.02-.06-27.55-16.03-.09-.05-10.43-6.05m-16.63-25.96V64.76m.01 159.04v-63.56m82.32 48.05v45.25" stroke="#fbefd8" stroke-width=".75" stroke-linecap="round" stroke-linejoin="round"/></svg>